<?xml version="1.0" encoding="UTF-8" standalone="no"?>
<!-- Created with Inkscape (http://www.inkscape.org/) -->

<svg
   xmlns:dc="http://purl.org/dc/elements/1.1/"
   xmlns:cc="http://creativecommons.org/ns#"
   xmlns:rdf="http://www.w3.org/1999/02/22-rdf-syntax-ns#"
   xmlns:svg="http://www.w3.org/2000/svg"
   xmlns="http://www.w3.org/2000/svg"
   xmlns:sodipodi="http://sodipodi.sourceforge.net/DTD/sodipodi-0.dtd"
   xmlns:inkscape="http://www.inkscape.org/namespaces/inkscape"
   width="300"
   height="600"
   viewBox="0 0 300 600"
   id="svg2"
   version="1.1"
   inkscape:version="0.92.1 r15371"
   sodipodi:docname="36FontMin.svg"
   style="enable-background:new"
   enable-background="new">
  <defs
     id="defs4">
    <font
       horiz-adv-x="300"
       id="font6205"
       inkscape:label="36Font"
       horiz-origin-x="0"
       horiz-origin-y="0">
      <font-face
         units-per-em="300"
         id="font-face6207"
         font-family="36Font" />
      <missing-glyph
         d="M 0,400 V -200 H 300 V 400 Z"
         id="missing-glyph6209" />
      <glyph
         glyph-name="Space"
         id="glyph3535"
         unicode=" "
         d="M 150,100 Z" />
      <glyph
         glyph-name="!"
         id="glyph3537"
         unicode="!"
         d="M 0,400 V 200 H 100 V 100 H 200 V 200 H 300 V 400 Z M 100,0 V -100 H 200 V 0 Z" />
      <glyph
         glyph-name="&quot;"
         id="glyph3539"
         unicode="&quot;"
         d="M 0,400 V 200 h 100 v 200 z m 200,0 V 200 h 100 v 200 z" />
      <glyph
         glyph-name="#"
         id="glyph3541"
         unicode="#"
         d="M 0,400 V -100 H 100 V 0 H 200 V -100 H 300 V 400 H 200 V 300 H 100 V 400 Z M 100,200 H 200 V 100 H 100 Z" />
      <glyph
         glyph-name="$"
         id="glyph3543"
         unicode="$"
         d="M 100,400 V 300 H 0 V 100 H 100 V -100 H 200 V 0 H 300 V 200 H 200 v 200 z" />
      <glyph
         glyph-name="%"
         id="glyph3545"
         unicode="%"
         d="M 0,400 V 300 h 100 v 100 z m 200,0 V 200 H 100 V 0 H 0 V -200 H 100 V 0 h 100 v 200 h 100 v 200 z m 0,-500 v -100 h 100 v 100 z" />
      <glyph
         glyph-name="&amp;"
         id="glyph3547"
         unicode="&amp;"
         d="M 0,400 V 200 H 100 V 100 H 0 V -100 H 300 V 0 H 200 V 100 H 300 V 300 H 200 v 100 z" />
      <glyph
         glyph-name="'"
         id="glyph3549"
         unicode="'"
         d="M 200,400 V 300 H 100 V 200 h 100 v 100 h 100 v 100 z" />
      <glyph
         glyph-name="("
         id="glyph3551"
         unicode="("
         d="M 100,400 V 300 H 0 V 0 H 100 V -100 H 200 V 0 H 100 v 300 h 100 v 100 z" />
      <glyph
         glyph-name=")"
         id="glyph3553"
         unicode=")"
         d="m 99.998047,400.00195 v -100 L 200,300 V 0 H 99.998047 V -100 H 199.99805 L 200,0 H 300 V 300.00195 L 200,300 l -0.002,100.00195 z" />
      <glyph
         glyph-name="*"
         id="glyph3555"
         unicode="*"
         d="M 100,400 V 300 H 0 V 200 H 100 V 100 H 0 V 0 H 100 V -100 H 200 V 0 H 300 V 100 H 200 V 200 H 300 V 300 H 200 v 100 z" />
      <glyph
         glyph-name="+"
         id="glyph3557"
         unicode="+"
         d="M 100,300 V 200 H 0 V 100 H 100 V 0 H 200 V 100 H 300 V 200 H 200 v 100 z" />
      <glyph
         glyph-name=","
         id="glyph3559"
         unicode=","
         d="M 100.00195,-0.00382 100,-99.99796 0,-100.00196 V -200 H 100.00195 L 100,-99.99796 l 100,-0.004 v 99.99805 z" />
      <glyph
         glyph-name="-"
         id="glyph3561"
         unicode="-"
         d="M 0,200 H 300 V 100 H 0 Z" />
      <glyph
         glyph-name="."
         id="glyph3563"
         unicode="."
         d="M 100,0 H 200 V -100 H 100 Z" />
      <glyph
         glyph-name="/"
         id="glyph3565"
         unicode="/"
         d="M 200,400 V 200 H 100 V 0 H 0 V -200 H 100 V 0 h 100 v 200 h 100 v 200 z" />
      <glyph
         glyph-name="0"
         id="glyph3567"
         unicode="0"
         d="M 100.00391,400 100,300 H 0 V 0 h 100 l 0.004,-100 h 100 L 200,0 H 300 V 300 H 200 l 0.004,100 z M 100,300 H 200 V 0 H 100 Z" />
      <glyph
         glyph-name="1"
         id="glyph3569"
         unicode="1"
         d="M 0,400 V 300 H 100 V 0 H 0 V -100 H 300 V 0 H 200 v 400 z" />
      <glyph
         glyph-name="2"
         id="glyph3571"
         unicode="2"
         d="M 0,400 V 300 H 200 V 200 H 100 V 100 H 0 V -100 H 300 V 0 H 100 V 100 H 200 V 200 H 300 V 300 H 200 v 100 z" />
      <glyph
         glyph-name="3"
         id="glyph3573"
         unicode="3"
         d="M 0,400 V 300 H 200 V 200 H 100.00391 V 100 H 200 V 0 H 0 V -100 H 200 V 0 H 300 V 100 H 200 V 200 H 300 V 300 H 200 v 100 z" />
      <glyph
         glyph-name="4"
         id="glyph3575"
         unicode="4"
         d="M 0,400 V 100 H 200 V -100 H 300 V 400 H 200 V 200 H 100 v 200 z" />
      <glyph
         glyph-name="5"
         id="glyph3577"
         unicode="5"
         d="M 0,400 V 200 H 100 V 100 H 200 V 0 H 0 V -100 H 200 V 0 H 300 V 200 H 100 v 100 h 200 v 100 z" />
      <glyph
         glyph-name="6"
         id="glyph3579"
         unicode="6"
         d="M 0,400 V -100 H 300 V 200 H 100 V 300 H 300 V 400 Z M 100,100 H 200 V 0 H 100 Z" />
      <glyph
         glyph-name="7"
         id="glyph3581"
         unicode="7"
         d="M 0,400 V 300 h 200 v -400 h 100 v 500 z" />
      <glyph
         glyph-name="8"
         id="glyph3583"
         unicode="8"
         d="M 0,400 V -100 H 300 V 400 Z M 100,300 H 200 V 200 H 100 Z m 0,-200 H 200 V 0 H 100 Z" />
      <glyph
         glyph-name="9"
         id="glyph3585"
         unicode="9"
         d="M 0,400 V 100 H 200 V -100 H 300 V 400 Z M 100,300 H 200 V 200 H 100 Z" />
      <glyph
         glyph-name=":"
         id="glyph3587"
         unicode=":"
         d="M 100,300 V 200 h 100 v 100 z m 0,-200 V 0 h 100 v 100 z" />
      <glyph
         glyph-name=";"
         id="glyph3589"
         unicode=";"
         d="M 100,300 V 200 h 100 v 100 z m 0,-200 v -200 h 100 v 200 z" />
      <glyph
         glyph-name="&lt;"
         id="glyph3591"
         unicode="&lt;"
         d="M 200,400 V 300 H 100 V 200 H 0 V 100 H 100 V 0 H 200 V -100 H 300 V 0 H 200 V 100 H 100 v 100 h 100 v 100 h 100 v 100 z" />
      <glyph
         glyph-name="="
         id="glyph3593"
         unicode="="
         d="M 0,300 V 200 H 300 V 300 Z M 0,100 V 0 h 300 v 100 z" />
      <glyph
         glyph-name="&gt;"
         id="glyph3595"
         unicode="&gt;"
         d="M 0,400 V 300 H 100 V 200 H 200 V 100 H 100 V 0 H 0 V -100 H 100 V 0 H 200 V 100 H 300 V 200 H 200 V 300 H 100 v 100 z" />
      <glyph
         glyph-name="?"
         id="glyph3597"
         unicode="?"
         d="M 0,400 V 200 H 100 V 300 H 200 V 100 H 300 V 400 Z M 100,0 V -100 H 200 V 0 Z" />
      <glyph
         glyph-name="@"
         id="glyph3599"
         unicode="@"
         d="M 0,400 V -100 H 300 V 400 Z M 100,200 H 200 V 100 H 100 Z" />
      <glyph
         glyph-name="A"
         id="glyph3601"
         unicode="A"
         d="M 0,400 V -100 H 100 V 0 H 200 V -100 H 300 V 400 Z M 100,300 H 200 V 100 H 100 Z" />
      <glyph
         glyph-name="B"
         id="glyph3603"
         unicode="B"
         d="M 0,400 V -100 H 200 V 0 H 100 V 100 H 200 V 0 H 300 V 300 H 200 V 200 H 100 v 100 h 100 v 100 z" />
      <glyph
         glyph-name="C"
         id="glyph3605"
         unicode="C"
         d="M 0,400 V -100 H 300 V 100 H 200 V 0 H 100 V 300 H 200 V 200 h 100 v 200 z" />
      <glyph
         glyph-name="D"
         id="glyph3653"
         unicode="D"
         d="M 0,400 V -100 H 200 V 0 H 300 V 300 H 200 V 400 Z M 100,300 H 200 V 0 H 100 Z" />
      <glyph
         glyph-name="E"
         id="glyph3655"
         unicode="E"
         d="M 0,400 V -100 H 300 V 0 H 100 V 100 H 200 V 200 H 100 v 100 h 200 v 100 z" />
      <glyph
         glyph-name="F"
         id="glyph3657"
         unicode="F"
         d="M 0,400 V -100 H 100 V 100 H 200 V 200 H 100 v 100 h 200 v 100 z" />
      <glyph
         glyph-name="G"
         id="glyph3659"
         unicode="G"
         d="M 0,400 V -100 H 300 V 200 H 200 V 0 H 100 v 300 h 200 v 100 z" />
      <glyph
         glyph-name="H"
         id="glyph3661"
         unicode="H"
         d="M 0,400 V -100 H 100 V 100 H 200 V -100 H 300 V 400 H 200 V 200 H 100 v 200 z" />
      <glyph
         glyph-name="I"
         id="glyph3663"
         unicode="I"
         d="M 0,400 V 300 H 100 V 0 H 0 V -100 H 300 V 0 H 200 v 300 h 100 v 100 z" />
      <glyph
         glyph-name="J"
         id="glyph3665"
         unicode="J"
         d="M 0,400 V 300 H 100 V 0 H 0 V -100 H 100 V 0 h 100 v 300 h 100 v 100 z" />
      <glyph
         glyph-name="K"
         id="glyph3667"
         unicode="K"
         d="M 0,400 V -100 H 100 V 0 H 200 V -100 H 300 V 0 H 200 V 100 H 100 V 200 H 200 V 300 H 300 V 400 H 200 V 300 H 100 v 100 z" />
      <glyph
         glyph-name="L"
         id="glyph3669"
         unicode="L"
         d="M 0,400 V -100 H 300 V 0 H 100 v 400 z" />
      <glyph
         glyph-name="M"
         id="glyph3671"
         unicode="M"
         d="M 0,400 V -100 H 300 V 400 H 200 V 300 H 100 v 100 z" />
      <glyph
         glyph-name="N"
         id="glyph3673"
         unicode="N"
         d="M 0,400 V -100 H 100 V 300 H 200 V -100 H 300 V 400 Z" />
      <glyph
         glyph-name="O"
         id="glyph3675"
         unicode="O"
         d="M 0,400 V -100 H 300 V 400 Z M 100,300 H 200 V 0 H 100 Z" />
      <glyph
         glyph-name="P"
         id="glyph3677"
         unicode="P"
         d="M 0,400 V -100 H 100 V 100 H 300 V 400 Z M 100,300 H 200 V 200 H 100 Z" />
      <glyph
         glyph-name="Q"
         id="glyph3679"
         unicode="Q"
         d="M 0,400 V -100 H 200 V -200 H 300 V 400 Z M 100,300 H 200 V 100 H 100 Z" />
      <glyph
         glyph-name="R"
         id="glyph3681"
         unicode="R"
         d="M 0,400 V -100 H 100 V 0 H 200 V -100 H 300 V 0 H 200 V 100 H 300 V 400 Z M 100,300 H 200 V 200 H 100 Z" />
      <glyph
         glyph-name="S"
         id="glyph3683"
         unicode="S"
         d="M 100,400 V 300 H 0 V 200 H 100 V 100 H 200 V 0 H 0 V -100 H 200 V 0 H 300 V 100 H 200 V 200 H 100 v 100 h 200 v 100 z" />
      <glyph
         glyph-name="T"
         id="glyph3685"
         unicode="T"
         d="M 0,400 V 300 h 100 v -400 h 100 v 400 h 100 v 100 z" />
      <glyph
         glyph-name="U"
         id="glyph3687"
         unicode="U"
         d="M 0,400 V -100 H 300 V 400 H 200 V 0 H 100 v 400 z" />
      <glyph
         glyph-name="V"
         id="glyph3689"
         unicode="V"
         d="M 0,400 V 100 H 100 V -100 H 200 V 100 H 300 V 400 H 200 V 100 H 100 v 300 z" />
      <glyph
         glyph-name="W"
         id="glyph3691"
         unicode="W"
         d="M 0,400 V -100 H 100 V 0 H 200 V -100 H 300 V 400 H 200 V 200 H 100 v 200 z" />
      <glyph
         glyph-name="X"
         id="glyph3693"
         unicode="X"
         d="M 0,400 V 200 H 100 V 100 H 0 V -100 H 100 V 100 H 200 V -100 H 300 V 100 H 200 V 200 H 300 V 400 H 200 V 200 H 100 v 200 z" />
      <glyph
         glyph-name="Y"
         id="glyph3695"
         unicode="Y"
         d="M 0,400 V 200 H 100 V -100 H 200 V 200 H 100 V 400 Z M 200,200 H 300 V 400 H 200 Z" />
      <glyph
         glyph-name="Z"
         id="glyph3697"
         unicode="Z"
         d="M 0,400 V 300 H 200 V 200 H 100 V 100 H 0 V -100 H 300 V 0 L 99.994667,0.00533 100,100 h 100 v 100 h 100 v 200 z" />
      <glyph
         glyph-name="["
         id="glyph3699"
         unicode="["
         d="m 0,400 v -600 h 300 v 100 H 100 v 400 h 200 v 100 z" />
      <glyph
         glyph-name="\"
         id="glyph3701"
         unicode="\"
         d="M 0,400 V 200 H 100 V 0 H 200 V -200 H 300 V 0 H 200 V 200 H 100 v 200 z" />
      <glyph
         glyph-name="]"
         id="glyph3703"
         unicode="]"
         d="M 0,400 V 300 H 200 V -100 H 0 v -100 h 300 v 600 z" />
      <glyph
         glyph-name="^"
         id="glyph3705"
         unicode="^"
         d="M 100,400 V 300 H 0 V 200 H 100 V 300 H 200 V 200 H 300 V 300 H 200 v 100 z" />
      <glyph
         glyph-name="_"
         id="glyph3707"
         unicode="_"
         d="M 0,-100 H 299.99844 V -200 H 0 Z" />
      <glyph
         glyph-name="`"
         id="glyph3709"
         unicode="`"
         d="M 0,400 V 300 H 100 V 200 H 200 V 300 H 100 v 100 z" />
      <glyph
         glyph-name="a"
         id="glyph3711"
         unicode="a"
         d="M 100,400 V 300 H 200 V 200 H 0 V -100 H 300 V 300 H 200 v 100 z m 0,-300 H 200 V 0 H 100 Z" />
      <glyph
         glyph-name="b"
         id="glyph3713"
         unicode="b"
         d="M 0,400 V -100 H 300 V 200 H 100 V 400 Z M 100,100 H 200 V 0 H 100 Z" />
      <glyph
         glyph-name="c"
         id="glyph3715"
         unicode="c"
         d="M 0,200 V -100 H 300 V 0 H 100 v 100 h 200 v 100 z" />
      <glyph
         glyph-name="d"
         id="glyph3717"
         unicode="d"
         d="M 200,400 V 200 H 0 V -100 H 300 V 400 Z M 100,100 H 200 V 0 H 100 Z" />
      <glyph
         glyph-name="e"
         id="glyph3719"
         unicode="e"
         d="M 100,300 V 200 H 0 V 0 H 100 V -100 H 300 V 100 H 100 v 100 h 200 v 100 z" />
      <glyph
         glyph-name="f"
         id="glyph3721"
         unicode="f"
         d="M 200,400 V 300 H 100 V 200 H 0 V 100 H 100 V -100 H 200 V 100 H 300 V 200 H 200 v 100 h 100 v 100 z" />
      <glyph
         glyph-name="g"
         id="glyph3723"
         unicode="g"
         d="M 100,200 V 100 H 200 V 0 H 100 V 100 H 0 v -200 h 100 v -100 h 200 v 400 z" />
      <glyph
         glyph-name="h"
         id="glyph3725"
         unicode="h"
         d="M 0,400 V -100 H 100 V 100 H 200 V -100 H 300 V 200 H 100 v 200 z" />
      <glyph
         glyph-name="i"
         id="glyph3727"
         unicode="i"
         d="M 100,400 V 300 h 100 v 100 z m 0,-200 v -300 h 100 v 300 z" />
      <glyph
         glyph-name="j"
         id="glyph3729"
         unicode="j"
         d="M 100,400 V 300 h 100 v 100 z m 0,-200 V -100 H 0 v -100 h 100 v 100 h 100 v 300 z" />
      <glyph
         glyph-name="k"
         id="glyph3731"
         unicode="k"
         d="M 0,400 V -100 H 100 V 0 H 200 V -100 H 300 V 0 H 200 V 100 H 300 V 200 H 200 V 100 H 100 v 300 z" />
      <glyph
         glyph-name="l"
         id="glyph3733"
         unicode="l"
         d="M 100,300 V 0 H 0 V -100 H 100 V 0 H 200 V 300 H 300 V 400 H 200 V 300 Z" />
      <glyph
         glyph-name="m"
         id="glyph3735"
         unicode="m"
         d="M 0,300 V -100 H 300 V 200 H 100 v 100 z" />
      <glyph
         glyph-name="n"
         id="glyph3737"
         unicode="n"
         d="M 0,100 V -200 H 100 V 0 H 200 V -200 H 300 V 0 H 200 v 100 z" />
      <glyph
         glyph-name="o"
         id="glyph3739"
         unicode="o"
         d="M 0,200 V -100 H 300 V 200 Z M 100,100 H 200 V 0 H 100 Z" />
      <glyph
         glyph-name="p"
         id="glyph3741"
         unicode="p"
         d="m 0,200 v -400 h 100 v 100 H 300 V 200 Z M 100,100 H 200 V 0 H 100 Z" />
      <glyph
         glyph-name="q"
         id="glyph3743"
         unicode="q"
         d="M 0,200 V -100 H 200 V -200 H 300 V 200 Z M 100,100 H 200 V 0 H 100 Z" />
      <glyph
         glyph-name="r"
         id="glyph3745"
         unicode="r"
         d="M 0,200 V -100 H 100 V 100 H 300 V 200 Z" />
      <glyph
         glyph-name="s"
         id="glyph3747"
         unicode="s"
         d="M 100,200 V 0 H 0 v -100 h 200 v 200 h 100 v 100 z" />
      <glyph
         glyph-name="t"
         id="glyph3749"
         unicode="t"
         d="M 100,300 V 200 H 0 V 100 H 100 V -100 H 200 V 100 H 300 V 200 H 200 v 100 z" />
      <glyph
         glyph-name="u"
         id="glyph3751"
         unicode="u"
         d="M 0,200 V -100 H 300 V 200 H 200 V 0 H 100 v 200 z" />
      <glyph
         glyph-name="v"
         id="glyph3753"
         unicode="v"
         d="M 0,200 V 0 H 100 V -100 H 200 V 0 H 300 V 200 H 200 V 0 H 100 v 200 z" />
      <glyph
         glyph-name="w"
         id="glyph3755"
         unicode="w"
         d="M 0,200 V -100 H 300 V 200 H 200 V 100 H 100 v 100 z" />
      <glyph
         glyph-name="x"
         id="glyph3757"
         unicode="x"
         d="M 0,200 V 100 H 100 V 0 H 0 V -100 H 100 V 0 H 200 V -100 H 300 V 0 H 200 V 100 H 300 V 200 H 200 V 100 H 100 v 100 z" />
      <glyph
         glyph-name="y"
         id="glyph3759"
         unicode="y"
         d="M 0,200 V 0 H 100 V -100 H 0 v -100 h 200 v 100 H 300 V 200 H 200 V 0 H 100 v 200 z" />
      <glyph
         glyph-name="z"
         id="glyph3761"
         unicode="z"
         d="M 0,200 V 100 H 100 V 0 H 0 V -100 H 300 V 0 H 200 v 100 h 100 v 100 z" />
      <glyph
         glyph-name="{"
         id="glyph3763"
         unicode="{"
         d="M 200,400 V 300 H 100 V 200 H 0 V 100 H 100 V 0 H 200 V -100 H 300 V 0 H 200 v 300 h 100 v 100 z" />
      <glyph
         glyph-name="|"
         id="glyph3765"
         unicode="|"
         d="M 100,400 H 200 V -200 H 100 Z" />
      <glyph
         glyph-name="}"
         id="glyph3767"
         unicode="}"
         d="M 0,400 V 300 H 100 V 0 H 0 V -100 H 100 V 0 H 200 V 100 H 300 V 200 H 200 V 300 H 100 v 100 z" />
      <glyph
         glyph-name="~"
         id="glyph3769"
         unicode="~"
         d="M 200,400 V 300 H 0 V 100 h 100 v 100 h 200 v 200 z" />
      <glyph
         glyph-name="█"
         id="glyph297"
         unicode="█"
         d="M 0,400 V -200 H 300 V 400 Z" />
    </font>
</defs>
</svg>
